<?xml version="1.0" encoding="UTF-8"?>
<svg width="840px" height="780px" viewBox="0 0 840 780" version="1.1" xmlns="http://www.w3.org/2000/svg" xmlns:xlink="http://www.w3.org/1999/xlink">
    <!-- Generator: Sketch 53.2 (72643) - https://sketchapp.com -->
    <title>react_customs copy 3</title>
    <desc>Created with Sketch.</desc>
    <defs>
        <linearGradient x1="99.9993915%" y1="49.9983091%" x2="0%" y2="49.9983091%" id="linearGradient-1">
            <stop stop-color="#E3E8FF" stop-opacity="0" offset="25.27%"></stop>
            <stop stop-color="#EDF2FF" offset="58.12%"></stop>
        </linearGradient>
        <linearGradient x1="82.6458645%" y1="44.6837588%" x2="13.6750081%" y2="56.8982221%" id="linearGradient-2">
            <stop stop-color="#E3EAFF" offset="0%"></stop>
            <stop stop-color="#E3E8FF" stop-opacity="0" offset="92.4%"></stop>
        </linearGradient>
        <linearGradient x1="100.001748%" y1="49.9892393%" x2="0.0106396889%" y2="49.9892393%" id="linearGradient-3">
            <stop stop-color="#FAFAFF" offset="67.75%"></stop>
            <stop stop-color="#DEE5FF" offset="74.64%"></stop>
        </linearGradient>
        <linearGradient x1="100.003033%" y1="49.9826401%" x2="0.0582139848%" y2="49.9826401%" id="linearGradient-4">
            <stop stop-color="#EDF2FF" offset="45.75%"></stop>
            <stop stop-color="#DEE5FF" offset="51.07%"></stop>
        </linearGradient>
        <linearGradient x1="100.024221%" y1="49.9887161%" x2="0.0793597304%" y2="49.9887161%" id="linearGradient-5">
            <stop stop-color="#EDF2FF" offset="45.75%"></stop>
            <stop stop-color="#DEE5FF" offset="51.07%"></stop>
        </linearGradient>
        <linearGradient x1="100.025316%" y1="49.9288246%" x2="0.0804970514%" y2="49.9288246%" id="linearGradient-6">
            <stop stop-color="#EDF2FF" offset="45.75%"></stop>
            <stop stop-color="#DEE5FF" offset="51.07%"></stop>
        </linearGradient>
        <linearGradient x1="66.7730155%" y1="49.9731526%" x2="-4.27262432%" y2="67.1151168%" id="linearGradient-7">
            <stop stop-color="#E3EAFF" offset="0%"></stop>
            <stop stop-color="#E3E8FF" stop-opacity="0" offset="92.4%"></stop>
        </linearGradient>
    </defs>
    <g id="react_customs-copy-3" stroke="none" stroke-width="1" fill="none" fill-rule="evenodd">
        <g id="Laptop-v3" transform="translate(52.000000, 36.000000)" fill-rule="nonzero">
            <path d="M725.772058,460.026354 L724.175668,460.026354 C723.111408,458.057473 721.515018,456.354657 719.333285,455.077545 L436.186931,291.660433 C424.054368,284.636318 409.101516,284.636318 396.91574,291.660433 L6.43877256,517.070686 C4.25703971,518.347798 2.66064982,520.050614 1.59638989,522.019495 L1.06425993,523.296606 C0.851407942,523.828736 0.691768953,524.360866 0.58534296,524.946209 L0,528.245415 L0,528.245415 C0,532.555668 2.12851986,536.919134 6.43877256,539.366931 L289.585126,702.837256 C301.71769,709.861372 316.670542,709.861372 328.856318,702.837256 L719.333285,477.373791 C723.643538,474.87278 725.772058,470.562527 725.772058,466.252274 L725.772058,466.252274 L725.772058,460.026354 L725.772058,460.026354 Z" id="Path" fill="url(#linearGradient-1)"></path>
            <path d="M734.126498,450.02231 L732.530108,450.02231 C731.465848,448.05343 729.869458,446.350614 727.687726,445.073502 L444.541372,281.603177 C432.408809,274.579061 417.455957,274.579061 405.270181,281.603177 L14.793213,507.066643 C12.6114801,508.343755 11.0150903,510.04657 9.95083032,512.015451 L8.35444043,512.015451 L8.35444043,518.188159 L8.35444043,518.188159 C8.35444043,522.498412 10.4829603,526.861877 14.793213,529.309675 L297.939567,692.78 C310.07213,699.804116 325.024982,699.804116 337.210758,692.78 L727.687726,467.316534 C731.997978,464.815523 734.126498,460.505271 734.126498,456.195018 L734.126498,456.195018 L734.126498,450.02231 Z" id="Path" fill="#DEE5FF"></path>
            <path d="M14.793213,500.840722 L405.323394,275.377256 C417.455957,268.353141 432.408809,268.353141 444.594585,275.377256 L727.740939,438.847581 C736.308231,443.79639 736.308231,456.195018 727.740939,461.143827 L337.263971,686.607292 C325.131408,693.631408 310.178556,693.631408 297.99278,686.607292 L14.793213,523.136968 C6.22592058,518.188159 6.22592058,505.789531 14.793213,500.840722 Z" id="Path" fill="#FAFAFF"></path>
            <path d="M424.692924,3.93776173 L424.214007,3.88454874 L426.768231,1.86245487 C430.12065,-0.372490975 435.122671,0.159638989 441.401805,3.77812274 L715.714801,163.629964 C732.902599,173.527581 736.680722,183.691264 736.680722,199.921227 L736.680722,426.023249 C736.680722,431.770253 735.40361,435.867653 733.062238,438.209025 C732.74296,438.528303 732.423682,438.794368 732.051191,439.060433 L730.295162,440.497184 L729.709819,440.177906 C726.51704,441.082527 722.26,440.177906 717.257978,437.251191 L443.689964,277.825054 C434.37769,272.450542 422.777256,252.336029 422.724043,241.587004 L421.979061,15.112491 C421.979061,10.1636823 422.936895,6.38555957 424.692924,3.93776173 Z" id="Path" fill="#DEE5FF"></path>
            <polygon id="Path" fill="url(#linearGradient-2)" points="177.199278 407.451913 194.653141 397.501083 504.033502 577.52065 473.010325 577.627076"></polygon>
            <path d="M420.010181,16.7088809 L420.755162,243.183394 C420.808375,253.932419 432.408809,274.046931 441.721083,279.421444 L715.289097,438.794368 C727.315235,445.712058 734.711841,441.455018 734.711841,427.566426 L734.711841,201.464404 C734.711841,181.722383 728.485921,173.367942 713.745921,165.173141 L439.486137,5.37451264 C427.406787,-1.59638989 420.010181,2.76707581 420.010181,16.7088809 Z" id="Path" fill="#E3EAFF"></path>
            <path d="M205.561805,390.955884 C206.413213,390.051264 207.477473,389.253069 208.648159,388.5613 L403.620578,275.111191 C415.646715,268.087076 430.546354,268.087076 442.572491,275.057978 L715.980866,434.37769 C717.364404,435.175884 718.481877,436.186931 719.492924,437.251191 L723.004982,437.251191 L723.004982,447.787365 L722.898556,447.787365 C722.526065,452.044404 720.237906,456.141805 715.980866,458.589603 L520.210253,571.614007 C503.767437,580.074874 495.30657,580.074874 481.364765,571.614007 L208.648159,412.72 C204.125054,410.112563 201.783682,405.589458 201.677256,401.013141 L201.677256,401.013141 L201.677256,390.955884 L205.561805,390.955884 Z" id="Path" fill="#E3EAFF"></path>
            <path d="M403.620578,265.85213 L208.648159,379.302238 C199.389097,384.676751 199.389097,398.086426 208.701372,403.460939 L481.364765,562.354946 C496.104765,572.252563 506.215235,570.762599 520.210253,562.354946 L715.980866,449.330542 C725.293141,443.956029 725.293141,430.493141 715.980866,425.118628 L694.216751,412.400722 L692.992852,413.198917 L460.66491,278.037906 L462.367726,277.292924 L442.625704,265.798917 C426.821444,256.167365 420.010181,256.167365 403.620578,265.85213 Z" id="Path" fill="#FAFAFF"></path>
            <polygon id="Path" fill="#FAFAFF" points="718.109386 191.886065 436.612635 28.3093141 436.612635 235.414296 718.109386 398.724982"></polygon>
            <polygon id="Path" fill="#CCD5FF" points="462.314513 277.292924 462.314513 279.048953 460.611697 278.037906"></polygon>
            <path d="M333.6987,472.21213 C334.390469,472.637834 364.668664,490.038484 365.413646,490.464188 C366.158628,490.889892 364.934729,494.614801 364.934729,494.614801 C364.934729,494.614801 362.167653,497.594729 360.943755,497.169025 C357.804188,495.359783 329.228809,478.970181 329.228809,478.970181 C326.621372,477.373791 324.599278,475.032419 324.546065,470.988231 C328.111336,470.190036 331.783032,471.307509 333.6987,472.21213 Z" id="Path" fill="#EDF2FF"></path>
            <path d="M701.879422,437.41083 L597.049819,498.339711 C595.98556,498.978267 594.655235,498.978267 593.590975,498.339711 L317.202671,338.221805 C315.92556,337.476823 315.92556,335.667581 317.202671,334.922599 L421.60657,274.312996 C422.67083,273.67444 424.001155,273.67444 425.065415,274.312996 L701.879422,434.111625 C703.103321,434.856606 703.103321,436.665848 701.879422,437.41083 Z" id="Path" fill="#E3EAFF"></path>
            <path d="M514.463249,458.749242 L421.021227,513.079711 C420.063394,513.611841 418.892708,513.611841 417.934874,513.079711 L294.214657,440.497184 C293.097184,439.858628 293.097184,438.209025 294.214657,437.570469 L387.337401,383.506065 C388.295235,382.973935 389.465921,382.973935 390.423755,383.506065 L514.463249,455.822527 C515.580722,456.461083 515.580722,458.110686 514.463249,458.749242 Z" id="Path" fill="#E3EAFF"></path>
            <path d="M701.879422,437.41083 L701.719783,437.517256 L425.065415,277.771841 C424.001155,277.133285 422.67083,277.133285 421.60657,277.771841 L317.309097,338.328231 L317.149458,338.221805 C315.872347,337.476823 315.872347,335.667581 317.149458,334.922599 L421.553357,274.312996 C422.617617,273.67444 423.947942,273.67444 425.012202,274.312996 L701.879422,434.111625 C703.103321,434.856606 703.103321,436.665848 701.879422,437.41083 Z" id="Path" fill="url(#linearGradient-3)"></path>
            <path d="M143.67509,528.671119 C171.877978,489.719206 203.646137,468.008303 240.895235,472.531408 L143.67509,528.671119 Z" id="Path" fill="#CCD5FF"></path>
            <path d="M182.094874,456.673935 C174.21935,452.097617 165.758484,448.425921 156.499422,446.084549 C166.875957,442.838556 177.731408,441.774296 189.065776,443.157834 C203.16722,444.541372 214.129097,447.840578 222.536751,452.736173 C208.701372,450.075523 195.291697,452.257256 182.094874,456.673935 Z" id="Path" fill="#DEE5FF"></path>
            <path d="M222.536751,452.789386 C231.157256,457.844621 237.063899,464.549458 240.895235,472.584621 C229.135162,471.14787 217.960433,472.318556 207.264621,475.830614 C199.44231,468.48722 191.141083,461.942022 182.094874,456.673935 C195.291697,452.257256 208.701372,450.075523 222.536751,452.789386 Z" id="Path" fill="#E3EAFF"></path>
            <path d="M182.094874,456.673935 C191.141083,461.942022 199.44231,468.48722 207.264621,475.830614 C184.010542,483.440072 162.991408,502.064621 143.67509,528.671119 C115.25935,525.105848 98.8697473,514.782527 91.8456318,499.297545 C111.481227,472.21213 132.819639,453.481155 156.499422,446.084549 C165.758484,448.479134 174.21935,452.097617 182.094874,456.673935" id="Path" fill="#EDF2FF"></path>
            <path d="M182.148087,455.556462 C183.478412,452.629747 185.500505,449.862671 187.89509,448.000217 C190.236462,446.190975 192.418195,445.658845 194.014585,446.297401 C194.28065,446.403827 194.546715,446.563466 194.759567,446.723105 L196.728448,447.840578 L196.036679,448.372708 C196.302744,449.011264 196.462383,449.756245 196.568809,450.607653 C196.675235,451.725126 196.568809,452.895812 196.302744,454.172924 L183.957329,456.886787 L182.148087,455.556462 Z" id="Path" fill="#CCD5FF"></path>
            <path d="M189.810758,449.11769 C194.227437,445.712058 198.111986,446.882744 198.484477,451.725126 C198.53769,452.363682 198.53769,453.002238 198.431264,453.694007 L183.957329,456.886787 C185.287653,453.906859 187.36296,451.033357 189.810758,449.11769 Z" id="Path" fill="#EDF2FF"></path>
            <polygon id="Rectangle" fill="#E3EAFF" transform="translate(309.117324, 562.264606) rotate(164.704681) translate(-309.117324, -562.264606) " points="242.014273 557.555153 376.220375 557.555153 376.220375 566.974059 242.014273 566.974059"></polygon>
            <path d="M372.597401,540.005487 L385.794224,540.59083 C386.485993,540.644043 386.752058,541.495451 386.166715,541.921155 L375.098412,549.10491 L372.597401,540.005487 Z" id="Path" fill="#EDF2FF"></path>
            <path d="M370.788159,550.328809 L375.098412,549.158123 C376.748014,548.679206 374.300217,539.579783 372.597401,540.0587 L368.287148,541.229386 C369.936751,540.750469 372.437762,549.849892 370.788159,550.328809 Z" id="Path" fill="#DEE5FF"></path>
            <path d="M248.877184,583.640144 L245.684404,584.544765 C246.85509,584.225487 244.354079,575.126065 243.183394,575.445343 L246.376173,574.540722 C247.653285,574.168231 250.154296,583.267653 248.877184,583.640144 Z" id="Path" fill="#DEE5FF"></path>
            <path d="M243.130181,575.445343 C244.300866,575.126065 246.801877,584.225487 245.631191,584.544765 C244.460505,584.864043 241.959495,575.764621 243.130181,575.445343 Z" id="Path" fill="#EDF2FF"></path>
            <path d="M235.520722,586.141155 L245.365126,583.427292 C245.897256,583.267653 243.981588,576.190325 243.396245,576.296751 L233.551841,579.010614 C234.296823,578.850975 236.265704,585.981516 235.520722,586.141155 Z" id="Path" fill="#E3EAFF"></path>
            <path d="M233.551841,579.063827 C234.296823,578.850975 236.265704,585.981516 235.520722,586.194368 C234.669314,586.40722 232.753646,579.276679 233.551841,579.063827 Z" id="Path" fill="#EDF2FF"></path>
            <polygon id="Path" fill="#E3EAFF" points="276.388303 565.281661 276.175451 565.867004 246.535812 573.955379 246.801877 573.370036"></polygon>
            <polygon id="Path" fill="#E3EAFF" points="245.524765 572.625054 244.992635 573.210397 244.407292 575.072852 244.779783 574.966426"></polygon>
            <polygon id="Path" fill="#EDF2FF" points="246.376173 574.540722 244.779783 574.966426 245.524765 572.625054 276.494729 564.164188 276.388303 565.281661 246.801877 573.370036"></polygon>
            <path d="M535.9613,437.889747 L535.9613,438.581516 L595.134152,404.418773 C596.091986,403.83343 597.315884,403.83343 598.273718,404.418773 L656.435523,437.623682 L660.000794,437.623682 L660.000794,440.497184 L660.000794,440.497184 C660.000794,440.976101 659.787942,441.508231 659.255812,441.774296 L598.433357,477.107726 C597.475523,477.693069 596.251625,477.693069 595.240578,477.107726 L534.418123,441.987148 C533.939206,441.721083 533.673141,441.188953 533.673141,440.710036 L533.673141,440.710036 L533.673141,437.94296 L535.9613,437.94296 L535.9613,437.889747 Z" id="Path" fill="url(#linearGradient-4)"></path>
            <path d="M659.255812,436.399783 L598.273718,401.598484 C597.315884,401.013141 596.091986,401.066354 595.134152,401.598484 L534.471336,436.612635 C533.513502,437.197978 533.513502,438.581516 534.471336,439.166859 L595.293791,474.287437 C596.304838,474.87278 597.475523,474.87278 598.48657,474.287437 L659.309025,438.954007 C660.266859,438.368664 660.266859,436.931913 659.255812,436.399783 Z" id="Path" fill="#FAFAFF"></path>
            <path d="M449.862671,388.02917 L449.862671,388.720939 L509.035523,354.558195 C509.993357,353.972852 511.217256,353.972852 512.17509,354.558195 L570.336895,387.763105 L573.902166,387.763105 L573.902166,390.636606 L573.902166,390.636606 C573.902166,391.115523 573.689314,391.647653 573.157184,391.913718 L512.334729,427.247148 C511.376895,427.832491 510.152996,427.832491 509.141949,427.247148 L448.319495,392.12657 C447.840578,391.860505 447.574513,391.328375 447.574513,390.849458 L447.574513,390.849458 L447.574513,388.082383 L449.862671,388.082383 L449.862671,388.02917 Z" id="Path" fill="url(#linearGradient-5)"></path>
            <path d="M573.210397,386.539206 L512.228303,351.737906 C511.270469,351.152563 510.04657,351.205776 509.088736,351.737906 L448.425921,386.752058 C447.468087,387.337401 447.468087,388.720939 448.425921,389.306282 L509.248375,424.426859 C510.259422,425.012202 511.430108,425.012202 512.441155,424.426859 L573.26361,389.09343 C574.168231,388.508087 574.168231,387.071336 573.210397,386.539206 Z" id="Path" fill="#FAFAFF"></path>
            <path d="M363.976895,338.48787 L363.976895,339.179639 L423.149747,305.016895 C424.107581,304.431552 425.33148,304.431552 426.289314,305.016895 L484.451119,338.221805 L488.01639,338.221805 L488.01639,341.095307 L488.01639,341.095307 C488.01639,341.574224 487.803538,342.106354 487.271408,342.372419 L426.448953,377.705848 C425.491119,378.291191 424.26722,378.291191 423.256173,377.705848 L362.433718,342.585271 C361.954801,342.319206 361.688736,341.787076 361.688736,341.308159 L361.688736,341.308159 L361.688736,338.541083 L363.976895,338.541083 L363.976895,338.48787 Z" id="Path" fill="url(#linearGradient-6)"></path>
            <path d="M487.324621,336.944693 L426.342527,302.143394 C425.384693,301.558051 424.160794,301.611264 423.20296,302.143394 L362.540144,337.157545 C361.58231,337.742888 361.58231,339.126426 362.540144,339.711769 L423.362599,374.832347 C424.373646,375.41769 425.544332,375.41769 426.555379,374.832347 L487.324621,339.498917 C488.282455,338.913574 488.282455,337.530036 487.324621,336.944693 Z" id="Path" fill="#FAFAFF"></path>
            <polygon id="Path" fill="#B0B9FF" points="489.61278 404.046282 480.992274 399.04426 489.61278 394.095451 498.286498 399.04426"></polygon>
            <polygon id="Path" fill="#B0B9FF" points="503.554585 396.064332 494.880866 391.115523 526.755451 369.085343 541.495451 377.971913"></polygon>
            <polygon id="Path" fill="#F4A3BD" points="564.855957 435.548375 564.057762 442.093574 628.871191 439.432924 629.722599 432.834513"></polygon>
            <polygon id="Path" fill="#F4A3BD" points="588.855018 456.40787 600.242599 455.982166 604.925343 418.520217 593.484549 418.999134"></polygon>
            <g id="Group" transform="translate(487.963177, 136.225271)">
                <path d="M125.74231,81.2562455 C145.856823,97.4329964 184.223394,108.075596 174.325776,132.872852 C172.356895,137.874874 168.685199,142.0787 164.215307,145.058628 C145.484332,157.510469 119.409964,161.235379 88.918917,147.240361 C86.8436101,146.282527 84.8747292,145.165054 83.0654874,143.834729 C62.3124188,129.041516 61.5142238,114.141877 52.8405054,110.150903 C39.2711913,102.64787 32.0874368,108.394874 16.4960289,97.5394224 C-5.42772563,80.8305415 2.12851986,62.5252708 2.12851986,62.5252708 L4.25703971,61.0353069 C4.25703971,61.0353069 3.67169675,45.9228159 4.68274368,35.0141516 C5.69379061,24.1054874 14.420722,1.64960289 27.8836101,0.372490975 C41.3464982,-0.904620939 57.2039711,3.45884477 69.8154513,13.7289531 L74.7642599,12.9839711 C94.5062816,37.3555235 112.545487,60.6628159 125.74231,81.2562455 Z" id="Path" fill="#F4A3BD"></path>
                <g transform="translate(0.532130, 20.220939)" fill="#181920" id="Path">
                    <path d="M3.56527076,37.2490975 C3.45884477,32.1406498 3.35241877,22.4558845 4.09740072,14.846426 C4.4698917,10.9086643 5.8534296,5.48093863 8.08837545,0.106425993 C11.7600722,15.6446209 27.9368231,19.6355957 27.4579061,31.0231769 C27.0854152,41.3997112 10.4297473,38.7922744 3.56527076,37.2490975 Z"></path>
                    <path d="M0.425703971,47.4127798 C6.38555957,48.4770397 13.7821661,49.1688087 21.8705415,48.5834657 C30.7571119,47.9449097 36.8766065,69.3897473 41.2932852,74.4981949 C52.2019495,87.1628881 96.6348014,109.193069 109.778412,110.683032 C146.814657,113.237256 136.172058,85.8325632 167.301661,88.97213 C171.079783,92.5906137 173.846859,96.5283755 174.857906,100.945054 C174.857906,100.945054 174.857906,100.998267 174.857906,100.998267 C174.857906,101.104693 174.911119,101.157906 174.911119,101.264332 C174.964332,101.58361 175.017545,101.902888 175.070758,102.275379 C175.070758,102.381805 175.123971,102.541444 175.123971,102.64787 C175.177184,102.967148 175.177184,103.286426 175.230397,103.605704 C175.230397,103.71213 175.230397,103.765343 175.230397,103.871769 C175.230397,104.297473 175.28361,104.669964 175.28361,105.095668 C175.28361,105.202094 175.28361,105.30852 175.28361,105.414946 C175.28361,105.734224 175.230397,106.053502 175.230397,106.425993 C175.230397,106.532419 175.230397,106.692058 175.177184,106.798484 C175.123971,107.170975 175.070758,107.543466 175.017545,107.915957 C175.017545,107.96917 175.017545,108.022383 174.964332,108.128809 C174.911119,108.554513 174.804693,109.03343 174.698267,109.459134 C174.645054,109.56556 174.645054,109.725199 174.591841,109.831625 C174.485415,110.150903 174.378989,110.523394 174.272563,110.895884 C174.21935,111.055523 174.166137,111.161949 174.166137,111.321588 C174.006498,111.800505 173.846859,112.226209 173.634007,112.705126 C171.665126,117.707148 119.197112,138.885921 88.706065,124.890903 C86.6307581,123.933069 85.5664982,123.400939 83.7572563,122.070614 C63.0041877,107.277401 62.0463538,92.6970397 53.3194224,88.706065 C39.7501083,81.2030325 33.0984838,86.8968231 17.5070758,76.0413718 C2.87350181,64.7070036 -0.212851986,54.0111913 0.425703971,47.4127798 Z"></path>
                </g>
                <path d="M176.241444,121.485271 C177.039639,124.997329 176.720361,128.881877 175.070758,133.138917 C173.048664,138.194152 169.430181,142.397978 164.853863,145.431119 C145.963249,157.989386 119.676029,161.714296 88.918917,147.612852 C86.8436101,146.655018 84.8747292,145.484332 83.0122744,144.20722 C62.0463538,129.307581 61.3013718,114.248303 52.5212274,110.204116 C38.8454874,102.594657 31.6085199,108.448087 15.8574729,97.4862094 C-6.22592058,80.6176895 1.33032491,62.1527798 1.33032491,62.1527798 L3.24599278,56.2993502 C3.24599278,56.2993502 4.04418773,55.9800722 4.04418773,54.9690253 C4.04418773,53.3726354 11.7068592,76.9459928 35.7059206,87.2693141 C57.7361011,96.7412274 68.4319134,110.363755 72.8485921,115.525415 C83.8636823,128.296534 106.745271,139.098773 126.540505,140.801588 C159.372924,143.249386 133.404982,119.942094 161.820722,115.525415 C165.86491,115.312563 172.410108,116.376823 176.241444,121.485271 Z" id="Path" fill="#F9DAE5"></path>
                <path d="M68.8044043,17.2942238 C68.8044043,17.2942238 54.1708303,4.57631769 35.7591336,2.76707581 C23.6797834,1.91566787 15.165704,8.62050542 16.0171119,19.2631047 C17.0281588,30.2781949 34.3755957,37.5151625 42.4107581,38.4197834 C52.0955235,39.5372563 68.8576173,37.4619495 68.8576173,37.4619495 L68.8576173,17.2942238 L68.8044043,17.2942238 Z" id="Path" fill="#FDF3F7"></path>
                <path d="M72.1568231,11.4940072 C65.2923466,13.6225271 58.321444,17.5070758 51.2441155,22.2430325 C50.1266426,22.9880144 49.6477256,24.4247653 50.0202166,25.7018773 C51.6166065,30.6506859 53.9047653,34.9077256 57.7361011,37.7280144 C58.1618051,38.0472924 59.013213,38.4197834 59.545343,38.4729964 C60.3967509,38.5794224 61.2481588,38.4729964 61.8867148,38.5262094 C62.6316968,38.5794224 63.6959567,39.1115523 64.1216606,39.7501083 C77.4249097,57.8425271 95.9430325,82.6397834 97.2733574,83.3315523 C99.6679422,84.6618773 102.913935,91.9520578 118.398917,90.2492419 C129.680072,89.025343 121.485271,80.6709025 122.017401,80.8305415 C112.226209,69.7090253 98.4440433,48.5302527 84.7683032,27.9900361 C84.3425993,27.3514801 84.3958123,26.5532852 84.7683032,25.9147292 C84.8215162,25.8615162 84.8215162,25.8083032 84.8747292,25.7550903 C85.1407942,25.2761733 85.1407942,24.6908303 84.8215162,24.2119134 C82.2140794,19.6888087 78.8616606,16.0171119 75.0303249,12.2389892 C74.285343,11.4407942 73.16787,11.1747292 72.1568231,11.4940072 Z" id="Path" fill="#181920"></path>
                <path d="M78.0634657,64.9198556 C77.9038267,58.534296 80.6709025,52.7340794 83.9701083,47.4659928 C87.1628881,42.3575451 91.0474368,37.7812274 96.1558845,34.5352347 C98.0715523,33.3113357 99.8275812,36.3444765 97.9651264,37.5683755 C93.3888087,40.4950903 89.9299639,44.645704 87.0564621,49.2220217 C84.0765343,54.0111913 81.4158845,59.119639 81.6287365,64.9198556 C81.6819495,67.2080144 78.1166787,67.2080144 78.0634657,64.9198556 L78.0634657,64.9198556 Z" id="Path" fill="#FFFFFF"></path>
                <path d="M68.1658484,48.4238267 C80.9369675,42.6768231 93.6548736,43.900722 106.532419,48.4238267 C108.660939,49.1688087 107.756318,52.5744404 105.574585,51.8294585 C93.7080866,47.6256318 81.7883755,46.1356679 69.9218773,51.4569675 C67.8997834,52.4148014 66.0905415,49.3816606 68.1658484,48.4238267 L68.1658484,48.4238267 Z" id="Path" fill="#FFFFFF"></path>
                <path d="M88.812491,79.8727076 C88.652852,73.487148 91.4199278,67.6869314 94.7191336,62.4188448 C97.9119134,57.3103971 101.796462,52.7340794 106.90491,49.4880866 C108.820578,48.2641877 110.576606,51.2973285 108.714152,52.5212274 C104.137834,55.4479422 100.678989,59.598556 97.8054874,64.1748736 C94.8255596,68.9640433 92.1649097,74.072491 92.3777617,79.8727076 C92.4309747,82.1608664 88.918917,82.1608664 88.812491,79.8727076 L88.812491,79.8727076 Z" id="Path" fill="#FFFFFF"></path>
                <path d="M78.9680866,63.3766787 C91.7392058,57.6296751 104.457112,58.853574 117.334657,63.3766787 C119.463177,64.1216606 118.558556,67.5272924 116.376823,66.7823105 C104.510325,62.5784838 92.5906137,61.0885199 80.7241155,66.4098195 C78.7020217,67.3676534 76.8927798,64.3345126 78.9680866,63.3766787 L78.9680866,63.3766787 Z" id="Path" fill="#FFFFFF"></path>
                <path d="M99.8807942,92.7502527 C99.7211552,86.7903971 102.328592,81.3626715 105.468159,76.4138628 C108.448087,71.6779061 112.06657,67.4740794 116.802527,64.4409386 C118.718195,63.2170397 120.474224,66.2501805 118.611769,67.4740794 C114.407942,70.1879422 111.215162,73.966065 108.554513,78.1698917 C105.787437,82.5865704 103.339639,87.3757401 103.446065,92.7502527 C103.499278,95.0384116 99.9340072,95.0384116 99.8807942,92.7502527 L99.8807942,92.7502527 Z" id="Path" fill="#FFFFFF"></path>
                <path d="M90.7813718,77.3184838 C102.64787,71.9971841 114.514368,73.114657 126.487292,77.3184838 C128.615812,78.0634657 127.711191,81.4690975 125.529458,80.7241155 C114.514368,76.8395668 103.499278,75.4560289 92.5374007,80.3516245 C90.4620939,81.3094585 88.706065,78.2763177 90.7813718,77.3184838 L90.7813718,77.3184838 Z" id="Path" fill="#FFFFFF"></path>
                <path d="M126.487292,80.6709025 C117.175018,81.2562455 108.554513,86.2050542 103.339639,93.9741516 C102.062527,95.8366065 99.0293863,94.0805776 100.306498,92.1649097 C106.266354,83.3315523 115.844693,77.7974007 126.487292,77.1056318 C128.775451,76.9992058 128.775451,80.5112635 126.487292,80.6709025 L126.487292,80.6709025 Z" id="Path" fill="#FFFFFF"></path>
                <path d="M10.5893863,84.0233213 C10.3765343,83.5976173 9.95083032,82.8526354 9.95083032,82.2672924 C9.95083032,80.9369675 10.8022383,79.9259206 11.8664982,79.9259206 C12.1325632,79.9259206 12.3986282,79.9791336 12.6114801,80.0855596 L12.6114801,80.0855596 L12.6114801,80.0855596 C15.165704,83.9701083 23.7329964,90.1428159 27.1918412,90.9942238 L27.2450542,91.0474368 C27.2450542,91.0474368 28.1496751,91.6327798 28.1496751,93.0163177 C28.1496751,94.3466426 27.0322022,95.2512635 26.4468592,95.2512635 C26.1807942,95.2512635 25.7550903,95.1448375 25.3293863,95.0384116 C25.2229603,94.9851986 25.0633213,94.9851986 24.9568953,94.9319856 C18.8374007,92.4309747 12.0793502,87.3225271 10.6958123,84.2361733 L10.6425993,84.0765343 L10.5893863,84.0233213 Z" id="Path" fill="#F7C7D7"></path>
            </g>
            <polygon id="Path" fill="#F06FA9" points="520.316679 230.039783 533.407076 254.996679 607.745632 198.803755 594.708448 173.793646"></polygon>
            <polygon id="Path" fill="#F06FA9" points="594.708448 290.383321 607.745632 280.485704 533.407076 138.407004 520.316679 148.304621"></polygon>
            <polygon id="Path" fill="#2400FF" points="402.76917 339.392491 404.525199 324.918556 391.488014 325.450686 388.774152 347.427653 466.731191 344.234874 467.635812 336.678628"></polygon>
            <g id="Group" transform="translate(648.134296, 304.910469)" fill="#CCD5FF">
                <path d="M6.43877256,39.4308303 L6.43877256,34.6416606 C4.15061372,33.2581227 1.80924188,31.0231769 0.425703971,29.054296 L1.38353791,26.3936462 C2.76707581,28.3093141 4.78916968,30.4378339 7.02411552,31.7149458 C9.84440433,33.3645487 11.7068592,32.5131408 11.7600722,29.799278 C11.7600722,27.1918412 10.2168953,24.6376173 7.3433935,21.5512635 C3.35241877,17.2942238 0.851407942,13.6225271 0.851407942,9.47191336 C0.851407942,5.53415162 3.19277978,3.88454874 6.81126354,5.26808664 L6.81126354,0.478916968 L9.31227437,1.91566787 L9.31227437,6.54519856 C11.6536462,7.98194946 13.2500361,9.68476534 14.420722,11.1747292 L13.4096751,13.7289531 C12.5582671,12.6646931 10.9618773,10.6425993 8.46086643,9.15263538 C5.42772563,7.3966065 4.25703971,8.8865704 4.25703971,10.8554513 C4.25703971,13.3032491 5.69379061,15.378556 9.15263538,19.1566787 C13.1968231,23.5201444 15.27213,27.1386282 15.218917,31.3956679 C15.218917,35.2270036 13.0371841,37.4619495 8.93978339,35.8655596 L8.93978339,40.8143682 L6.43877256,39.4308303 Z" id="Path"></path>
                <path d="M26.7129242,51.2441155 L26.7129242,46.4549458 C24.4247653,45.0714079 22.0833935,42.8364621 20.6998556,40.8675812 L21.6576895,38.2069314 C23.0412274,40.1225993 25.0633213,42.2511191 27.2982671,43.528231 C30.118556,45.1778339 31.9810108,44.326426 32.0342238,41.6125632 C32.0342238,39.0051264 30.4910469,36.4509025 27.6175451,33.3645487 C23.5733574,29.107509 21.1255596,25.4358123 21.1255596,21.2851986 C21.1255596,17.3474368 23.4669314,15.6978339 27.0854152,17.0813718 L27.0854152,12.2922022 L29.586426,13.7289531 L29.586426,18.3584838 C31.9277978,19.7952347 33.5241877,21.4980505 34.6948736,22.9880144 L33.6838267,25.5422383 C32.8324188,24.4779783 31.2360289,22.4558845 28.7350181,20.9659206 C25.7018773,19.2098917 24.5311913,20.6998556 24.5311913,22.6687365 C24.5311913,25.1165343 25.9679422,27.1918412 29.426787,30.9699639 C33.4709747,35.3334296 35.5462816,38.9519134 35.4930686,43.2089531 C35.4930686,47.0402888 33.3113357,49.2752347 29.213935,47.6788448 L29.213935,52.6276534 L26.7129242,51.2441155 Z" id="Path"></path>
                <path d="M46.9338628,63.0041877 L46.9338628,58.2150181 C44.645704,56.8314801 42.3043321,54.5965343 40.9207942,52.6276534 L41.8786282,49.9670036 C43.2621661,51.8826715 45.2842599,54.0111913 47.5192058,55.2883032 C50.3394946,56.9379061 52.2019495,56.0864982 52.2551625,53.3726354 C52.2551625,50.7651986 50.7119856,48.2109747 47.8384838,45.1246209 C43.794296,40.8675812 41.3464982,37.1958845 41.3464982,33.0452708 C41.3464982,29.107509 43.68787,27.4579061 47.3063538,28.841444 L47.3063538,24.0522744 L49.8073646,25.4890253 L49.8073646,30.118556 C52.1487365,31.5553069 53.7451264,33.2581227 54.9158123,34.7480866 L53.9047653,37.3023105 C53.0533574,36.2380505 51.4569675,34.2159567 48.9559567,32.7259928 C45.9228159,30.9699639 44.75213,32.4599278 44.75213,34.4288087 C44.75213,36.8766065 46.1888809,38.9519134 49.6477256,42.7300361 C53.6919134,47.0935018 55.7672202,50.7119856 55.7140072,54.9690253 C55.7140072,58.800361 53.5322744,61.0353069 49.4348736,59.438917 L49.4348736,64.3877256 L46.9338628,63.0041877 Z" id="Path"></path>
            </g>
            <polygon id="Path" fill="url(#linearGradient-7)" opacity="0.57" points="286.818051 343.968809 286.818051 343.968809 350.673646 306.772924 350.673646 306.772924 432.462022 260.051913 734.286137 435.654801 225.835957 441.721083 217.428303 384.357473"></polygon>
        </g>
    </g>
</svg>